
<svg width="350" height="67" viewBox="0 0 350 67" fill="none" xmlns="http://www.w3.org/2000/svg">
<path d="M6.75899 14.8377L20.1225 1.31445L23.0636 8.07516L16.3046 14.8377H35.4796C36.2615 14.8406 37.025 15.0753 37.6735 15.5123C38.3221 15.9493 38.8266 16.5688 39.1233 17.2926C39.4199 18.0165 39.4954 18.812 39.3402 19.5788C39.185 20.3455 38.8061 21.049 38.2513 21.6003L0 59.9035V50.3361L6.75899 43.5754L21.9653 28.361C22.5151 27.8027 24.5826 25.8697 24.7308 25.1001C24.879 24.3305 24.8763 24.0901 24.5733 23.3674C24.2702 22.6447 23.9658 22.2256 23.3131 21.7922C22.6604 21.3588 19.9137 21.599 19.1303 21.6003H9.55119C8.76755 21.6015 8.00124 21.3697 7.34954 20.9343C6.69784 20.4988 6.19016 19.8795 5.89096 19.1548C5.59175 18.4302 5.51453 17.6329 5.66908 16.8643C5.82363 16.0956 6.20299 15.3902 6.75899 14.8377Z" fill="#028EC0"/>
<path d="M50.0327 48.6681L56.7917 41.9055L63.5823 44.6992L50.0755 58.2243C49.5233 58.7806 48.8183 59.1602 48.05 59.3148C47.2818 59.4695 46.4849 59.3922 45.7607 59.0928C45.0364 58.7935 44.4174 58.2855 43.9822 57.6335C43.547 56.9814 43.3153 56.2147 43.3165 55.4307V45.8297C43.3123 45.0481 43.5401 42.6508 43.1046 42.0019C42.6691 41.353 42.4084 40.7263 41.6869 40.4267C40.9654 40.1271 39.9542 40.2692 39.0091 40.8992C38.2423 41.0489 37.1136 42.4741 36.5575 43.023L21.3512 58.2374L14.5922 65H5.04102L43.2737 26.7414C43.8259 26.1851 44.5309 25.8056 45.2992 25.6509C46.0674 25.4963 46.8643 25.5736 47.5885 25.8729C48.3128 26.1723 48.9318 26.6803 49.367 27.3323C49.8022 27.9843 50.0339 28.7511 50.0327 29.5351V48.6681Z" fill="#028EC0"/>
<path d="M20.793 1H57.2014H63.9939V44.0227L57.2033 41.229V7.76071H23.7341L20.793 1Z" fill="#38B9E6"/>
<path d="M103.288 50.392C100.838 50.392 98.486 50.0327 96.232 49.314C94.0107 48.5627 92.2303 47.5663 90.891 46.325C90.401 45.8677 90.156 45.296 90.156 44.61C90.156 44.1527 90.2867 43.7607 90.548 43.434C90.8093 43.0747 91.1197 42.895 91.479 42.895C91.9037 42.895 92.361 43.0747 92.851 43.434C95.889 45.786 99.3517 46.962 103.239 46.962C106.048 46.962 108.204 46.423 109.707 45.345C111.21 44.267 111.961 42.7317 111.961 40.739C111.961 39.5957 111.602 38.681 110.883 37.995C110.164 37.2763 109.217 36.7047 108.041 36.28C106.865 35.8553 105.281 35.4143 103.288 34.957C100.609 34.3363 98.4043 33.683 96.673 32.997C94.9743 32.311 93.586 31.331 92.508 30.057C91.4627 28.783 90.94 27.117 90.94 25.059C90.94 23.099 91.4627 21.3677 92.508 19.865C93.586 18.3297 95.0723 17.1537 96.967 16.337C98.8943 15.4877 101.083 15.063 103.533 15.063C105.82 15.063 107.943 15.4223 109.903 16.141C111.896 16.827 113.562 17.8233 114.901 19.13C115.424 19.6527 115.685 20.2243 115.685 20.845C115.685 21.3023 115.554 21.7107 115.293 22.07C115.032 22.3967 114.721 22.56 114.362 22.56C114.003 22.56 113.529 22.3803 112.941 22.021C111.34 20.7143 109.854 19.7997 108.482 19.277C107.11 18.7543 105.46 18.493 103.533 18.493C100.822 18.493 98.7147 19.0647 97.212 20.208C95.7093 21.3187 94.958 22.8867 94.958 24.912C94.958 26.6433 95.6113 27.95 96.918 28.832C98.2573 29.6813 100.299 30.4327 103.043 31.086C106.016 31.8047 108.351 32.4743 110.05 33.095C111.749 33.683 113.153 34.5813 114.264 35.79C115.407 36.9987 115.979 38.6157 115.979 40.641C115.979 42.5683 115.44 44.267 114.362 45.737C113.317 47.207 111.83 48.3503 109.903 49.167C107.976 49.9837 105.771 50.392 103.288 50.392ZM140.047 25.647C140.668 25.647 141.142 25.8267 141.468 26.186C141.828 26.5453 142.007 27.019 142.007 27.607V48.334C142.007 48.8893 141.828 49.3467 141.468 49.706C141.142 50.0653 140.668 50.245 140.047 50.245C139.459 50.245 138.986 50.0817 138.626 49.755C138.3 49.3957 138.136 48.9383 138.136 48.383V45.933C137.385 47.3703 136.323 48.4647 134.951 49.216C133.612 49.9673 132.093 50.343 130.394 50.343C127.552 50.343 125.413 49.559 123.975 47.991C122.538 46.3903 121.819 44.0383 121.819 40.935V27.607C121.819 27.019 121.999 26.5453 122.358 26.186C122.718 25.8267 123.208 25.647 123.828 25.647C124.449 25.647 124.923 25.8267 125.249 26.186C125.609 26.5453 125.788 27.019 125.788 27.607V40.837C125.788 42.9603 126.213 44.5283 127.062 45.541C127.912 46.521 129.251 47.011 131.08 47.011C133.171 47.011 134.853 46.3413 136.127 45.002C137.401 43.63 138.038 41.8333 138.038 39.612V27.607C138.038 27.019 138.218 26.5453 138.577 26.186C138.937 25.8267 139.427 25.647 140.047 25.647ZM161.389 25.549C163.48 25.549 165.325 26.0717 166.926 27.117C168.527 28.1623 169.768 29.6323 170.65 31.527C171.532 33.389 171.973 35.5613 171.973 38.044C171.973 40.5267 171.532 42.699 170.65 44.561C169.768 46.3903 168.527 47.8113 166.926 48.824C165.358 49.8367 163.512 50.343 161.389 50.343C159.527 50.343 157.894 49.9347 156.489 49.118C155.117 48.3013 154.072 47.1417 153.353 45.639V57.154C153.353 57.742 153.173 58.1993 152.814 58.526C152.487 58.8853 152.014 59.065 151.393 59.065C150.772 59.065 150.282 58.8853 149.923 58.526C149.564 58.1667 149.384 57.7093 149.384 57.154V27.607C149.384 27.019 149.564 26.5453 149.923 26.186C150.282 25.8267 150.772 25.647 151.393 25.647C152.014 25.647 152.487 25.8267 152.814 26.186C153.173 26.5453 153.353 27.019 153.353 27.607V30.253C154.072 28.7503 155.117 27.5907 156.489 26.774C157.894 25.9573 159.527 25.549 161.389 25.549ZM160.605 47.06C162.924 47.06 164.721 46.276 165.995 44.708C167.269 43.14 167.906 40.9187 167.906 38.044C167.906 35.1693 167.269 32.9317 165.995 31.331C164.721 29.6977 162.924 28.881 160.605 28.881C158.286 28.881 156.489 29.665 155.215 31.233C153.974 32.801 153.353 35.0387 153.353 37.946C153.353 40.8533 153.974 43.1073 155.215 44.708C156.489 46.276 158.286 47.06 160.605 47.06ZM189.909 25.549C191.999 25.549 193.845 26.0717 195.446 27.117C197.046 28.1623 198.288 29.6323 199.17 31.527C200.052 33.389 200.493 35.5613 200.493 38.044C200.493 40.5267 200.052 42.699 199.17 44.561C198.288 46.3903 197.046 47.8113 195.446 48.824C193.878 49.8367 192.032 50.343 189.909 50.343C188.047 50.343 186.413 49.9347 185.009 49.118C183.637 48.3013 182.591 47.1417 181.873 45.639V57.154C181.873 57.742 181.693 58.1993 181.334 58.526C181.007 58.8853 180.533 59.065 179.913 59.065C179.292 59.065 178.802 58.8853 178.443 58.526C178.083 58.1667 177.904 57.7093 177.904 57.154V27.607C177.904 27.019 178.083 26.5453 178.443 26.186C178.802 25.8267 179.292 25.647 179.913 25.647C180.533 25.647 181.007 25.8267 181.334 26.186C181.693 26.5453 181.873 27.019 181.873 27.607V30.253C182.591 28.7503 183.637 27.5907 185.009 26.774C186.413 25.9573 188.047 25.549 189.909 25.549ZM189.125 47.06C191.444 47.06 193.241 46.276 194.515 44.708C195.789 43.14 196.426 40.9187 196.426 38.044C196.426 35.1693 195.789 32.9317 194.515 31.331C193.241 29.6977 191.444 28.881 189.125 28.881C186.805 28.881 185.009 29.665 183.735 31.233C182.493 32.801 181.873 35.0387 181.873 37.946C181.873 40.8533 182.493 43.1073 183.735 44.708C185.009 46.276 186.805 47.06 189.125 47.06ZM208.432 50.245C207.844 50.245 207.354 50.0817 206.962 49.755C206.603 49.3957 206.423 48.9057 206.423 48.285V17.17C206.423 16.5493 206.603 16.0757 206.962 15.749C207.354 15.3897 207.844 15.21 208.432 15.21C208.987 15.21 209.445 15.3897 209.804 15.749C210.196 16.0757 210.392 16.5493 210.392 17.17V48.285C210.392 48.9057 210.196 49.3957 209.804 49.755C209.445 50.0817 208.987 50.245 208.432 50.245ZM235.011 26.872C235.37 26.088 235.942 25.696 236.726 25.696C237.216 25.696 237.657 25.8593 238.049 26.186C238.441 26.5127 238.637 26.921 238.637 27.411C238.637 27.705 238.571 27.9663 238.441 28.195L224.672 57.889C224.508 58.2483 224.263 58.526 223.937 58.722C223.643 58.918 223.332 59.016 223.006 59.016C222.516 59.016 222.075 58.8527 221.683 58.526C221.323 58.232 221.144 57.84 221.144 57.35C221.144 57.0887 221.209 56.8273 221.34 56.566L224.77 49.167L215.068 28.195C214.937 27.9663 214.872 27.7213 214.872 27.46C214.872 26.97 215.084 26.5453 215.509 26.186C215.966 25.8267 216.456 25.647 216.979 25.647C217.305 25.647 217.616 25.745 217.91 25.941C218.236 26.137 218.481 26.4147 218.645 26.774L226.828 45.149L235.011 26.872ZM269.099 15.21C270.177 15.21 271.042 15.5693 271.696 16.288C272.382 16.974 272.725 17.8723 272.725 18.983V46.472C272.725 47.6153 272.382 48.5463 271.696 49.265C271.042 49.951 270.177 50.294 269.099 50.294C267.923 50.294 266.975 49.8693 266.257 49.02L249.842 27.999V46.472C249.842 47.6153 249.515 48.5463 248.862 49.265C248.241 49.951 247.392 50.294 246.314 50.294C245.236 50.294 244.37 49.951 243.717 49.265C243.063 48.5463 242.737 47.6153 242.737 46.472V18.983C242.737 17.8723 243.063 16.974 243.717 16.288C244.403 15.5693 245.285 15.21 246.363 15.21C247.571 15.21 248.502 15.6347 249.156 16.484L265.571 37.358V18.983C265.571 17.8723 265.897 16.974 266.551 16.288C267.204 15.5693 268.053 15.21 269.099 15.21ZM290.558 50.392C288.01 50.392 285.773 49.8857 283.845 48.873C281.918 47.8277 280.432 46.374 279.386 44.512C278.341 42.6173 277.818 40.396 277.818 37.848C277.818 35.3 278.341 33.095 279.386 31.233C280.432 29.3383 281.918 27.8847 283.845 26.872C285.773 25.8593 288.01 25.353 290.558 25.353C293.106 25.353 295.344 25.8593 297.271 26.872C299.199 27.8847 300.685 29.3383 301.73 31.233C302.776 33.095 303.298 35.3 303.298 37.848C303.298 40.396 302.776 42.6173 301.73 44.512C300.685 46.374 299.199 47.8277 297.271 48.873C295.344 49.8857 293.106 50.392 290.558 50.392ZM290.558 44.757C294.152 44.757 295.948 42.454 295.948 37.848C295.948 35.5287 295.475 33.7973 294.527 32.654C293.613 31.5107 292.29 30.939 290.558 30.939C286.965 30.939 285.168 33.242 285.168 37.848C285.168 42.454 286.965 44.757 290.558 44.757ZM320.939 44.904C321.919 44.9693 322.637 45.2143 323.095 45.639C323.552 46.0637 323.781 46.6843 323.781 47.501C323.781 48.4483 323.405 49.167 322.654 49.657C321.902 50.147 320.824 50.343 319.42 50.245L318.048 50.147C312.331 49.6897 309.473 46.7007 309.473 41.18V31.478H307.513C306.435 31.478 305.618 31.2493 305.063 30.792C304.507 30.302 304.23 29.616 304.23 28.734C304.23 27.8193 304.507 27.1333 305.063 26.676C305.618 26.186 306.435 25.941 307.513 25.941H309.473V22.119C309.473 21.041 309.799 20.1917 310.453 19.571C311.139 18.9503 312.053 18.64 313.197 18.64C314.34 18.64 315.238 18.9503 315.892 19.571C316.545 20.1917 316.872 21.041 316.872 22.119V25.941H320.302C322.523 25.941 323.634 26.872 323.634 28.734C323.634 29.616 323.356 30.302 322.801 30.792C322.245 31.2493 321.412 31.478 320.302 31.478H316.872V41.719C316.872 42.699 317.1 43.4503 317.558 43.973C318.015 44.463 318.685 44.7407 319.567 44.806L320.939 44.904ZM345.817 42.846C346.47 42.846 346.993 43.1073 347.385 43.63C347.81 44.1527 348.022 44.8223 348.022 45.639C348.022 46.1943 347.859 46.717 347.532 47.207C347.205 47.6643 346.748 48.0563 346.16 48.383C345.049 48.971 343.759 49.461 342.289 49.853C340.819 50.2123 339.463 50.392 338.222 50.392C335.609 50.392 333.322 49.8857 331.362 48.873C329.435 47.8603 327.948 46.423 326.903 44.561C325.858 42.6663 325.335 40.445 325.335 37.897C325.335 35.447 325.841 33.2747 326.854 31.38C327.867 29.4853 329.271 28.0153 331.068 26.97C332.865 25.892 334.906 25.353 337.193 25.353C339.382 25.353 341.293 25.843 342.926 26.823C344.592 27.7703 345.882 29.1423 346.797 30.939C347.712 32.703 348.169 34.7773 348.169 37.162C348.169 37.8807 347.989 38.436 347.63 38.828C347.303 39.1873 346.83 39.367 346.209 39.367H332.489C332.718 41.2943 333.306 42.699 334.253 43.581C335.2 44.4303 336.556 44.855 338.32 44.855C339.267 44.855 340.117 44.7407 340.868 44.512C341.619 44.2833 342.452 43.973 343.367 43.581C343.824 43.385 344.265 43.2217 344.69 43.091C345.115 42.9277 345.49 42.846 345.817 42.846ZM337.389 30.449C335.984 30.449 334.857 30.9063 334.008 31.821C333.159 32.703 332.652 33.9933 332.489 35.692H341.946C341.848 33.9607 341.407 32.654 340.623 31.772C339.872 30.89 338.794 30.449 337.389 30.449Z" fill="#404040"/>
</svg>